<?xml version="1.0" encoding="UTF-8" standalone="no"?>
<!-- Created with Inkscape (http://www.inkscape.org/) -->

<svg
   width="130.63562mm"
   height="46.145466mm"
   viewBox="0 0 130.63562 46.145466"
   version="1.1"
   id="svg1"
   xml:space="preserve"
   xmlns:xlink="http://www.w3.org/1999/xlink"
   xmlns="http://www.w3.org/2000/svg"
   xmlns:svg="http://www.w3.org/2000/svg"><defs
     id="defs1"><linearGradient
       id="linearGradient9"><stop
         style="stop-color:#fdcd2d;stop-opacity:1"
         offset="0"
         id="stop8" /><stop
         style="stop-color:#fff4d7;stop-opacity:1"
         offset="1"
         id="stop9" /></linearGradient><linearGradient
       id="linearGradient7"><stop
         style="stop-color:#fff4d7;stop-opacity:1"
         offset="0"
         id="stop6" /><stop
         style="stop-color:#fdcd2d;stop-opacity:1"
         offset="1"
         id="stop7" /></linearGradient><linearGradient
       id="linearGradient5"><stop
         style="stop-color:#fff4d7;stop-opacity:1"
         offset="0"
         id="stop4" /><stop
         style="stop-color:#fdcd2d;stop-opacity:1"
         offset="1"
         id="stop5" /></linearGradient><linearGradient
       id="linearGradient124"><stop
         style="stop-color:#fff4d7;stop-opacity:0"
         offset="0"
         id="stop124" /><stop
         style="stop-color:#fdd03b;stop-opacity:1"
         offset="1"
         id="stop125" /></linearGradient><linearGradient
       xlink:href="#linearGradient5"
       id="linearGradient109"
       x1="130.63907"
       y1="68.035545"
       x2="173.14053"
       y2="68.035545"
       gradientUnits="userSpaceOnUse" /><linearGradient
       xlink:href="#linearGradient7"
       id="linearGradient111"
       x1="130.63907"
       y1="68.035545"
       x2="173.14053"
       y2="68.035545"
       gradientUnits="userSpaceOnUse" /><linearGradient
       xlink:href="#linearGradient9"
       id="linearGradient113"
       x1="53.040352"
       y1="67.981651"
       x2="71.699287"
       y2="67.981651"
       gradientUnits="userSpaceOnUse" /><linearGradient
       xlink:href="#linearGradient9"
       id="linearGradient118"
       x1="53.040352"
       y1="67.981651"
       x2="71.699287"
       y2="67.981651"
       gradientUnits="userSpaceOnUse" /><linearGradient
       xlink:href="#linearGradient124"
       id="linearGradient125"
       x1="129.22467"
       y1="81.821877"
       x2="171.36423"
       y2="81.821877"
       gradientUnits="userSpaceOnUse" /></defs><g
     id="layer1"
     transform="translate(-37.802312,-9.7397643)"><path
       id="path20"
       style="fill:#fdcd2d;stroke-width:3.29999;stroke-linecap:square"
       d="M 57.08744,16.539866 A 12.482878,12.482878 0 0 0 44.677862,27.670969 c 0.122066,-0.0055 0.24441,-0.0082 0.366902,-0.0083 1.66226,-3.598249 5.115377,-5.691272 8.572604,-5.726782 3.319789,-0.0341 6.68762,1.814015 8.491988,5.108732 2.735464,-0.429396 5.541121,0.577573 7.447607,2.550748 A 12.482878,12.482878 0 0 0 69.570399,29.022308 12.482878,12.482878 0 0 0 57.08744,16.539866 Z" /><g
       id="g65"
       transform="matrix(1,0,0,1.0855249,12.30988,-27.037168)"
       style="fill:#fdcd2d;stroke-width:0.959799"><path
         d="m 44.452,33.8794 h 0.651 a 0.5,0.5 0 0 1 0.5,0.5 v 3.9692 a 0.5,0.5 0 0 1 -0.5,0.5 h -0.651 a 0.5,0.5 0 0 1 -0.5,-0.5 v -3.9692 a 0.5,0.5 0 0 1 0.5,-0.5 z"
         style="stroke-width:3.16733;stroke-linecap:square"
         id="rect9" /></g><g
       id="g80"
       transform="matrix(0,1,-1.0855249,0,113.14958,-15.75247)"
       style="fill:#fdcd2d;stroke-width:0.959799"><path
         d="m 44.452,33.8794 h 0.651 a 0.5,0.5 0 0 1 0.5,0.5 v 3.9692 a 0.5,0.5 0 0 1 -0.5,0.5 h -0.651 a 0.5,0.5 0 0 1 -0.5,-0.5 v -3.9692 a 0.5,0.5 0 0 1 0.5,-0.5 z"
         style="stroke-width:3.16733;stroke-linecap:square"
         id="path80" /></g><g
       id="g83"
       transform="matrix(0.70710678,0.70710678,-0.76758202,0.76758202,65.061404,-42.292597)"
       style="fill:#fdcd2d;stroke-width:0.959799"><path
         d="m 44.452,33.8794 h 0.651 a 0.5,0.5 0 0 1 0.5,0.5 v 3.9692 a 0.5,0.5 0 0 1 -0.5,0.5 h -0.651 a 0.5,0.5 0 0 1 -0.5,-0.5 v -3.9692 a 0.5,0.5 0 0 1 0.5,-0.5 z"
         style="stroke-width:3.16733;stroke-linecap:square"
         id="path83" /></g><g
       id="g85"
       transform="matrix(0.37929408,0.92527618,-1.0044103,0.41173316,91.975164,-33.67766)"
       style="fill:#fdcd2d;stroke-width:0.959799"><path
         d="m 44.452,33.8794 h 0.651 a 0.5,0.5 0 0 1 0.5,0.5 v 3.9692 a 0.5,0.5 0 0 1 -0.5,0.5 h -0.651 a 0.5,0.5 0 0 1 -0.5,-0.5 v -3.9692 a 0.5,0.5 0 0 1 0.5,-0.5 z"
         style="stroke-width:3.16733;stroke-linecap:square"
         id="path84" /></g><g
       id="g87"
       transform="matrix(-0.9252762,-0.37929403,-0.41173311,1.0044104,119.77141,-5.881408)"
       style="fill:#fdcd2d;stroke-width:0.959799"><path
         d="m 44.452,33.8794 h 0.651 a 0.5,0.5 0 0 1 0.5,0.5 v 3.9692 a 0.5,0.5 0 0 1 -0.5,0.5 h -0.651 a 0.5,0.5 0 0 1 -0.5,-0.5 v -3.9692 a 0.5,0.5 0 0 1 0.5,-0.5 z"
         style="stroke-width:3.16733;stroke-linecap:square"
         id="path86" /></g><g
       id="g91"
       transform="matrix(-0.70710678,0.70710678,0.76758202,0.76758202,49.113356,-42.292597)"
       style="fill:#fdcd2d;stroke-width:0.959799"><path
         d="m 44.452,33.8794 h 0.651 a 0.5,0.5 0 0 1 0.5,0.5 v 3.9692 a 0.5,0.5 0 0 1 -0.5,0.5 h -0.651 a 0.5,0.5 0 0 1 -0.5,-0.5 v -3.9692 a 0.5,0.5 0 0 1 0.5,-0.5 z"
         style="stroke-width:3.16733;stroke-linecap:square"
         id="path90" /></g><g
       id="g92"
       transform="matrix(-0.37929408,0.92527618,1.0044103,0.41173316,22.199596,-33.67766)"
       style="fill:#fdcd2d;stroke-width:0.959799"><path
         d="m 44.452,33.8794 h 0.651 a 0.5,0.5 0 0 1 0.5,0.5 v 3.9692 a 0.5,0.5 0 0 1 -0.5,0.5 h -0.651 a 0.5,0.5 0 0 1 -0.5,-0.5 v -3.9692 a 0.5,0.5 0 0 1 0.5,-0.5 z"
         style="stroke-width:3.16733;stroke-linecap:square"
         id="path91" /></g><g
       id="g93"
       transform="matrix(0.9252762,-0.37929403,0.41173311,1.0044104,-5.5966498,-5.881408)"
       style="fill:#fdcd2d;stroke-width:0.959799"><path
         d="m 44.452,33.8794 h 0.651 a 0.5,0.5 0 0 1 0.5,0.5 v 3.9692 a 0.5,0.5 0 0 1 -0.5,0.5 h -0.651 a 0.5,0.5 0 0 1 -0.5,-0.5 v -3.9692 a 0.5,0.5 0 0 1 0.5,-0.5 z"
         style="stroke-width:3.16733;stroke-linecap:square"
         id="path92" /></g><path
       id="rect95"
       style="fill:url(#linearGradient125);stroke-width:3.29999;stroke-linecap:square"
       d="m 160.57758,46.361266 v 3.008085 H 126.2975 v 3.398759 h 34.28008 v 3.117122 l 7.85947,-4.761983 z" /><path
       d="m 138.29387,31.659802 v 11.66172 h -1.78258 l -6.43061,-7.89665 v 7.89665 h -2.14908 v -11.66172 h 1.78257 l 6.43061,7.89665 v -7.89665 z m 7.13676,11.778337 q -1.34943,0 -2.43231,-0.583086 -1.08287,-0.583086 -1.69928,-1.615981 -0.59974,-1.049555 -0.59974,-2.365663 0,-1.316109 0.59974,-2.349004 0.61641,-1.032895 1.69928,-1.615981 1.08288,-0.583086 2.43231,-0.583086 1.36608,0 2.44896,0.583086 1.08287,0.583086 1.68262,1.615981 0.6164,1.032895 0.6164,2.349004 0,1.316108 -0.6164,2.365663 -0.59975,1.032895 -1.68262,1.615981 -1.08288,0.583086 -2.44896,0.583086 z m 0,-1.782577 q 1.14951,0 1.89919,-0.766342 0.74968,-0.766341 0.74968,-2.015811 0,-1.24947 -0.74968,-2.015812 -0.74968,-0.766341 -1.89919,-0.766341 -1.14952,0 -1.8992,0.766341 -0.73302,0.766342 -0.73302,2.015812 0,1.24947 0.73302,2.015811 0.74968,0.766342 1.8992,0.766342 z m 20.58101,-7.230266 -3.28194,8.896226 h -1.99915 l -2.29902,-6.130733 -2.33235,6.130733 h -1.99915 l -3.26528,-8.896226 h 1.96583 l 2.349,6.563882 2.44897,-6.563882 h 1.74925 l 2.39899,6.597201 2.41564,-6.597201 z m 1.37253,-2.765494 h 2.46562 l -0.41649,7.796693 h -1.6493 z m 1.23281,11.778337 q -0.58308,0 -0.96626,-0.366511 -0.38317,-0.383171 -0.38317,-0.932938 0,-0.549767 0.38317,-0.916278 0.38318,-0.366511 0.96626,-0.366511 0.56643,0 0.93294,0.366511 0.38317,0.366511 0.38317,0.916278 0,0.549767 -0.38317,0.932938 -0.36651,0.366511 -0.93294,0.366511 z"
       id="text99"
       style="-inkscape-font-specification:'Montserrat Semi-Bold';fill:url(#linearGradient109);stroke:url(#linearGradient111);stroke-width:0.5;stroke-linecap:square"
       transform="scale(0.98974544,1.0103608)"
       aria-label="Now!" /><path
       d="m 68.380909,31.776418 -3.865027,11.661719 h -2.299025 l -2.88211,-8.629672 -2.93209,8.629672 H 54.086973 L 50.221946,31.776418 h 2.249046 l 2.89877,8.862906 3.015388,-8.862906 h 1.999151 l 2.94875,8.912885 2.982068,-8.912885 z"
       id="text101"
       style="-inkscape-font-specification:'Montserrat Semi-Bold';fill:url(#linearGradient113);stroke:url(#linearGradient118);stroke-width:0.5;stroke-linecap:square"
       transform="scale(0.98974544,1.0103608)"
       aria-label="W" /><path
       d="m 78.876232,38.923388 q 0,0.216574 -0.03332,0.616405 H 71.86254 q 0.183255,0.982916 0.949597,1.566002 0.783001,0.566426 1.932513,0.566426 1.466045,0 2.415642,-0.966256 l 1.116193,1.282789 q -0.599745,0.716363 -1.516023,1.082874 -0.916278,0.366511 -2.06579,0.366511 -1.466045,0 -2.582238,-0.583086 -1.116193,-0.583086 -1.732599,-1.615981 -0.599745,-1.049555 -0.599745,-2.365663 0,-1.299449 0.583086,-2.332344 0.599745,-1.049555 1.6493,-1.632641 1.049555,-0.583086 2.365663,-0.583086 1.299449,0 2.315685,0.583086 1.032895,0.566426 1.599321,1.615981 0.583086,1.032895 0.583086,2.398983 z m -4.498092,-2.93209 q -0.999576,0 -1.699279,0.599746 -0.683043,0.583086 -0.83298,1.566002 H 76.89374 Q 76.760463,37.190789 76.077419,36.591044 75.394376,35.991298 74.37814,35.991298 Z m 9.852257,-1.66596 q 1.965833,0 2.998728,0.949597 1.049555,0.932938 1.049555,2.832132 v 5.214455 h -1.965833 v -1.082874 q -0.383171,0.583086 -1.099534,0.899618 -0.699703,0.299873 -1.699279,0.299873 -0.999576,0 -1.749258,-0.333192 -0.749682,-0.349852 -1.166172,-0.949597 -0.39983,-0.616405 -0.39983,-1.382747 0,-1.199491 0.882959,-1.915854 0.899618,-0.733022 2.815472,-0.733022 H 86.19623 V 37.99045 q 0,-0.932938 -0.566427,-1.432726 -0.549766,-0.499788 -1.6493,-0.499788 -0.749682,0 -1.482704,0.233235 -0.716363,0.233234 -1.216151,0.649724 l -0.81632,-1.516023 q 0.699703,-0.533107 1.682619,-0.816321 0.982916,-0.283213 2.08245,-0.283213 z m -0.283213,7.596777 q 0.783001,0 1.382747,-0.349851 0.616405,-0.366511 0.866299,-1.032895 v -1.032895 h -2.149089 q -1.799236,0 -1.799236,1.182831 0,0.566426 0.449809,0.899618 0.449809,0.333192 1.24947,0.333192 z m 12.551112,0.916278 q -0.366511,0.299873 -0.899619,0.44981 -0.516447,0.149936 -1.099533,0.149936 -1.466045,0 -2.265706,-0.766342 -0.79966,-0.766341 -0.79966,-2.232386 v -4.281517 h -1.466045 v -1.66596 h 1.466045 v -2.032471 h 2.082449 v 2.032471 h 2.382323 v 1.66596 h -2.382323 v 4.231538 q 0,0.649725 0.316533,0.999576 0.316532,0.333192 0.916278,0.333192 0.699703,0 1.166172,-0.366511 z m 6.970164,-8.513055 q 1.68262,0 2.69886,0.982916 1.01623,0.982917 1.01623,2.91543 v 5.097838 h -2.08245 v -4.831284 q 0,-1.166172 -0.54976,-1.749258 -0.54977,-0.599746 -1.566,-0.599746 -1.14952,0 -1.8159,0.699704 -0.66639,0.683043 -0.66639,1.982492 v 4.498092 H 98.420605 V 30.960099 h 2.082445 v 4.498092 q 0.51645,-0.549767 1.26613,-0.83298 0.76635,-0.299873 1.69928,-0.299873 z m 15.01674,4.59805 q 0,0.216574 -0.0333,0.616405 h -6.98037 q 0.18325,0.982916 0.94959,1.566002 0.78301,0.566426 1.93252,0.566426 1.46604,0 2.41564,-0.966256 l 1.11619,1.282789 q -0.59974,0.716363 -1.51602,1.082874 -0.91628,0.366511 -2.06579,0.366511 -1.46605,0 -2.58224,-0.583086 -1.11619,-0.583086 -1.7326,-1.615981 -0.59974,-1.049555 -0.59974,-2.365663 0,-1.299449 0.58308,-2.332344 0.59975,-1.049555 1.6493,-1.632641 1.04956,-0.583086 2.36567,-0.583086 1.29945,0 2.31568,0.583086 1.0329,0.566426 1.59932,1.615981 0.58309,1.032895 0.58309,2.398983 z m -4.49809,-2.93209 q -0.99958,0 -1.69928,0.599746 -0.68305,0.583086 -0.83298,1.566002 h 5.04786 q -0.13328,-0.966257 -0.81632,-1.566002 -0.68305,-0.599746 -1.69928,-0.599746 z m 8.6861,-0.266554 q 0.89962,-1.399406 3.16533,-1.399406 v 1.982492 q -0.26656,-0.04998 -0.48313,-0.04998 -1.21615,0 -1.89919,0.716362 -0.68305,0.699704 -0.68305,2.032472 v 4.314836 h -2.08245 v -8.896226 h 1.98249 z"
       id="text103"
       style="-inkscape-font-specification:'Montserrat Semi-Bold';fill:#ffffff;stroke:#ffffff;stroke-width:0.5;stroke-linecap:square"
       transform="scale(0.98974544,1.0103608)"
       aria-label="eather" /><path
       id="path89"
       style="fill:#fdcd2d;stroke-width:3.29999;stroke-linecap:square"
       d="m 38.344915,28.199619 a 0.54276245,0.5 0 0 0 -0.542603,0.499711 v 0.651123 a 0.54276245,0.5 0 0 0 0.542603,0.500228 h 1.008724 a 8.7781696,8.7781696 0 0 1 2.829285,-1.651062 z" /></g></svg>
